PathFileType	4	(X/Y/Z)	C:\Users\86182\Documents\cortex\Trimmed_M4_H12.trc
DataRate	CameraRate	NumFrames	NumMarkers	Units	OrigDataRate	OrigDataStartFrame	OrigNumFrames
100.00	100.00	       113	2	mm	100.00	181	       901
Frame#	Time	gripper			box			
		X1	Y1	Z1	X2	Y2	Z2	

181	1.800	277.69406	149.96709	219.67245	280.09537	146.97264	83.83774	
182	1.810	277.74570	149.94882	220.07570	280.09534	146.95798	84.25815	
183	1.820	277.88202	149.91721	220.45236	280.10599	146.94832	84.68364	
184	1.830	278.08319	149.87660	220.81064	280.12442	146.94537	85.11374	
185	1.840	278.31210	149.83434	221.16588	280.14917	146.94870	85.54897	
186	1.850	278.51151	149.80176	221.53920	280.17783	146.95636	85.98956	
187	1.860	278.63812	149.78745	221.94389	280.20554	146.96576	86.43327	
188	1.870	278.68362	149.79301	222.37961	280.22705	146.97478	86.87593	
189	1.880	278.65515	149.81622	222.84093	280.23865	146.98242	87.31438	
190	1.890	278.55838	149.85370	223.32349	280.23764	146.98787	87.74852	
191	1.900	278.41583	149.89793	223.81650	280.22211	146.98936	88.18013	
192	1.910	278.28433	149.93558	224.29620	280.19122	146.98546	88.60980	
193	1.920	278.23071	149.95354	224.73659	280.14575	146.97679	89.03627	
194	1.930	278.28445	149.94789	225.12878	280.08853	146.96609	89.45958	
195	1.940	278.41565	149.92638	225.48839	280.02463	146.95665	89.88309	
196	1.950	278.56183	149.90163	225.84299	279.95987	146.95120	90.31155	
197	1.960	278.66824	149.88446	226.21574	279.89935	146.95113	90.74783	
198	1.970	278.69016	149.88522	226.62521	279.84589	146.95618	91.19125	
199	1.980	278.58252	149.91524	227.09012	279.79800	146.96559	91.63927	
200	1.990	278.32770	149.97916	227.61829	279.75143	146.97896	92.09071	
201	2.000	277.96606	150.06837	228.19351	279.70392	146.99553	92.54567	
202	2.010	277.57550	150.16599	228.78362	279.65851	147.01387	93.00235	
203	2.020	277.22214	150.25769	229.36005	279.62274	147.03246	93.45487	
204	2.030	276.93808	150.33681	229.90729	279.60602	147.04916	93.89410	
205	2.040	276.73056	150.40182	230.42044	279.61896	147.06007	94.31034	
206	2.050	276.59360	150.45285	230.90082	279.67456	147.06088	94.69547	
207	2.060	276.51337	150.49080	231.35268	279.78662	147.05013	95.04369	
208	2.070	276.47339	150.51726	231.78108	279.96368	147.02942	95.35310	
209	2.080	276.45920	150.53406	232.19168	280.19888	147.00131	95.62923	
210	2.090	276.45932	150.54294	232.59062	280.45773	146.96895	95.89030	
211	2.100	276.46512	150.54594	232.98422	280.67883	146.93851	96.16835	
212	2.110	276.47159	150.54517	233.37871	280.81070	146.91727	96.49282	
213	2.120	276.47787	150.54222	233.77927	280.86017	146.90654	96.86438	
214	2.130	276.48581	150.53864	234.18881	280.88339	146.90086	97.25702	
215	2.140	276.49771	150.53615	234.60759	280.92084	146.89613	97.65141	
216	2.150	276.51501	150.53616	235.03419	280.95871	146.89517	98.05580	
217	2.160	276.53781	150.53951	235.46724	280.96378	146.90356	98.48869	
218	2.170	276.56503	150.54675	235.90561	280.94174	146.92159	98.94812	
219	2.180	276.59445	150.55867	236.34865	280.93460	146.94386	99.41151	
220	2.190	276.62241	150.57611	236.79675	280.95990	146.96759	99.86661	
221	2.200	276.64499	150.59952	237.25043	280.97870	146.99741	100.32906	
222	2.210	276.66031	150.62849	237.70869	280.93503	147.03993	100.82240	
223	2.220	276.66788	150.66113	238.16896	280.81812	147.09431	101.34767	
224	2.230	276.66663	150.69441	238.62788	280.66434	147.15269	101.88416	
225	2.240	276.65601	150.72549	239.08224	280.50024	147.21027	102.41824	
226	2.250	276.63770	150.75284	239.52982	280.31342	147.27008	102.95506	
227	2.260	276.61441	150.77625	239.96979	280.08807	147.33563	103.49928	
228	2.270	276.58838	150.79596	240.40137	279.84119	147.40358	104.04025	
229	2.280	276.56152	150.81187	240.82373	279.60825	147.46602	104.56315	
230	2.290	276.53589	150.82339	241.23801	279.41461	147.51665	105.06168	
231	2.300	276.51218	150.83031	241.64804	279.27036	147.55338	105.53585	
232	2.310	276.48987	150.83337	242.05826	279.17737	147.57721	105.98604	
233	2.320	276.46933	150.83356	242.47180	279.13605	147.58963	106.41121	
234	2.330	276.45279	150.83099	242.89026	279.14935	147.59085	106.80976	
235	2.340	276.44287	150.82477	243.31332	279.22488	147.57976	107.18019	
236	2.350	276.44016	150.81421	243.73972	279.37207	147.55530	107.52194	
237	2.360	276.44336	150.80034	244.16919	279.59372	147.51846	107.83696	
238	2.370	276.45105	150.78526	244.60242	279.87531	147.47327	108.13155	
239	2.380	276.46173	150.77011	245.03915	280.17749	147.42654	108.42076	
240	2.390	276.47256	150.75375	245.47835	280.44122	147.38702	108.73119	
241	2.400	276.47995	150.73474	245.91989	280.62061	147.36116	109.08645	
242	2.410	276.47992	150.71385	246.36401	280.72284	147.34764	109.48224	
243	2.420	276.46915	150.69382	246.80913	280.79639	147.33849	109.88898	
244	2.430	276.44690	150.67650	247.25163	280.87100	147.32779	110.28530	
245	2.440	276.41562	150.66158	247.68793	280.92581	147.31766	110.67865	
246	2.450	276.37830	150.64816	248.11615	280.92593	147.31358	111.08744	
247	2.460	276.33652	150.63667	248.53705	280.87769	147.31534	111.51176	
248	2.470	276.29196	150.62881	248.95328	280.82245	147.31717	111.93550	
249	2.480	276.24759	150.62598	249.36696	280.77603	147.31740	112.35469	
250	2.490	276.20685	150.62715	249.77814	280.69632	147.32372	112.79112	
251	2.500	276.17310	150.62932	250.18674	280.52472	147.34665	113.27298	
252	2.510	276.14987	150.63037	250.59491	280.25433	147.38786	113.80481	
253	2.520	276.13901	150.63075	251.00618	279.94049	147.43840	114.36375	
254	2.530	276.13815	150.63197	251.42290	279.64981	147.48770	114.92192	
255	2.540	276.14212	150.63434	251.84531	279.42273	147.52940	115.46095	
256	2.550	276.14755	150.63684	252.27242	279.27472	147.55977	115.97037	
257	2.560	276.15433	150.63853	252.70311	279.20712	147.57642	116.44509	
258	2.570	276.16321	150.63979	253.13699	279.21338	147.57938	116.88551	
259	2.580	276.17407	150.64195	253.57391	279.28320	147.57111	117.29639	
260	2.590	276.18668	150.64603	254.01237	279.40466	147.55524	117.68399	
261	2.600	276.20148	150.65215	254.44984	279.56229	147.53577	118.05383	
262	2.610	276.21896	150.66010	254.88538	279.73077	147.51729	118.41339	
263	2.620	276.23807	150.66943	255.32013	279.86804	147.50609	118.78023	
264	2.630	276.25519	150.67940	255.75452	279.92389	147.50996	119.18175	
265	2.640	276.26620	150.68948	256.18661	279.87643	147.53290	119.63361	
266	2.650	276.26923	150.69989	256.61414	279.75293	147.56996	120.12233	
267	2.660	276.26602	150.71098	257.03693	279.60065	147.61052	120.61954	
268	2.670	276.26093	150.72269	257.45679	279.45270	147.64555	121.10521	
269	2.680	276.25833	150.73412	257.87543	279.32513	147.67133	121.57283	
270	2.690	276.25928	150.74397	258.29330	279.22504	147.68793	122.02372	
271	2.700	276.26096	150.75185	258.70975	279.15363	147.69556	122.46210	
272	2.710	276.26089	150.75861	259.12506	279.10623	147.69344	122.89278	
273	2.720	276.26062	150.76506	259.54132	279.07416	147.68234	123.31931	
274	2.730	276.26373	150.77051	259.96094	279.04990	147.66612	123.74353	
275	2.740	276.27261	150.77359	260.38458	279.03067	147.64992	124.16708	
276	2.750	276.28748	150.77432	260.81134	279.01736	147.63715	124.59280	
277	2.760	276.30640	150.77483	261.24084	279.01096	147.62823	125.02370	
278	2.770	276.32635	150.77792	261.67352	279.01038	147.62181	125.46090	
279	2.780	276.34521	150.78482	262.10931	279.01285	147.61688	125.90301	
280	2.790	276.36197	150.79463	262.54736	279.01611	147.61398	126.34767	
281	2.800	276.37561	150.80577	262.98633	279.01917	147.61438	126.79364	
282	2.810	276.38495	150.81772	263.42499	279.02084	147.61821	127.24084	
283	2.820	276.38916	150.83078	263.86304	279.01843	147.62398	127.68804	
284	2.830	276.38840	150.84435	264.30066	279.00800	147.63019	128.13116	
285	2.840	276.38434	150.85654	264.73676	278.98630	147.63684	128.56567	
286	2.850	276.37885	150.86562	265.16827	278.95288	147.64545	128.99106	
287	2.860	276.37198	150.87143	265.59283	278.90976	147.65723	129.41162	
288	2.870	276.36276	150.87572	266.00980	278.86014	147.67101	129.83218	
289	2.880	276.35178	150.88055	266.41995	278.80750	147.68307	130.25360	
290	2.890	276.34149	150.88620	266.82578	278.75467	147.69023	130.67331	
291	2.900	276.33374	150.89076	267.23071	278.70325	147.69215	131.08966	
292	2.910	276.32816	150.89220	267.63727	278.65497	147.69006	131.50439	
293	2.920	276.32379	150.89009	268.04639	278.61359	147.68462	131.92035	
